<?xml version="1.0" standalone="no"?>
<!DOCTYPE svg PUBLIC "-//W3C//DTD SVG 20010904//EN"
 "http://www.w3.org/TR/2001/REC-SVG-20010904/DTD/svg10.dtd">
<svg version="1.0" xmlns="http://www.w3.org/2000/svg"
 width="210.000000pt" height="141.000000pt" viewBox="0 0 210.000000 141.000000"
 preserveAspectRatio="xMidYMid meet">

<g transform="translate(0.000000,141.000000) scale(0.100000,-0.100000)"
fill="#000000" stroke="none">
<path d="M0 705 l0 -705 1050 0 1050 0 0 705 0 705 -1050 0 -1050 0 0 -705z
m2060 661 c0 -19 -6 -25 -27 -28 -16 -2 -252 -2 -525 0 l-498 2 0 25 0 25 525
0 525 0 0 -24z m10 -86 l0 -40 -535 0 -535 0 0 40 0 40 535 0 535 0 0 -40z m0
-90 c0 -37 -2 -40 -27 -41 l-28 -2 28 -4 c24 -4 27 -8 27 -44 0 -24 -5 -39
-12 -40 -10 0 -10 -2 0 -6 8 -3 12 -31 12 -89 l0 -84 -535 0 -535 0 0 85 c0
61 4 85 13 86 10 0 10 2 0 6 -8 2 -13 22 -13 44 0 38 1 39 38 41 l37 1 -37 4
c-37 4 -38 5 -38 44 l0 39 535 0 535 0 0 -40z m-1232 -257 c28 -65 44 -165 36
-219 -3 -24 -8 -44 -9 -44 -2 0 -68 14 -147 30 -79 17 -169 36 -201 42 -41 7
-55 14 -48 21 13 13 333 215 342 216 4 1 16 -20 27 -46z m828 -178 c9 -14 20
-22 25 -19 15 9 10 -13 -6 -26 -8 -7 -15 -19 -15 -27 0 -11 -8 -13 -32 -8 -42
9 -58 22 -58 47 0 57 56 79 86 33z m-96 -55 c0 -5 -5 -10 -11 -10 -8 0 -8 -4
1 -15 16 -19 -16 -64 -47 -65 -26 0 -27 5 -12 47 12 35 69 71 69 43z m306 -77
c65 -32 151 -120 182 -187 12 -25 22 -50 22 -55 0 -5 -53 -23 -117 -41 -65
-17 -146 -41 -180 -52 -97 -31 -96 -32 -53 115 20 70 40 130 43 133 11 12 40
-63 32 -83 -15 -33 -14 -45 4 -65 18 -19 19 -19 52 0 19 11 33 24 32 28 0 5
-3 29 -6 54 -7 60 -14 77 -54 127 -51 63 -43 68 43 26z m-621 -32 l230 -27
-81 -7 c-45 -3 -92 -11 -106 -17 -17 -8 -67 -9 -169 -3 l-144 8 -3 38 c-4 45
-28 44 273 8z m214 -51 c9 0 25 -14 35 -31 16 -27 22 -30 48 -25 26 5 29 3 23
-12 -4 -9 -10 -25 -12 -34 -3 -10 -13 -18 -22 -18 -10 0 -12 -3 -5 -8 7 -4 9
-32 6 -74 l-4 -68 -37 -2 -36 -1 38 -4 c33 -4 37 -7 37 -33 0 -22 -5 -30 -22
-33 -21 -4 -20 -4 3 -6 21 -1 28 -7 32 -28 3 -16 3 -30 0 -33 -8 -8 -205 -6
-235 3 -23 6 -28 13 -28 37 0 17 5 30 13 31 10 0 10 2 0 6 -7 2 -13 18 -13 34
l0 29 63 -5 c62 -4 62 -4 11 4 -67 11 -74 16 -74 52 0 27 3 29 28 24 l27 -5
-27 11 c-22 8 -28 17 -28 40 0 16 6 29 13 30 10 0 10 2 0 6 -7 2 -13 20 -13
39 0 27 3 32 18 27 15 -5 14 -4 -2 9 -15 12 -16 17 -6 23 16 10 120 24 138 19
8 -2 21 -4 31 -4z m-261 -26 l73 -6 -2 -145 -1 -145 -56 6 c-32 3 -109 8 -174
12 -96 5 -117 9 -120 23 -1 9 -2 74 0 145 l3 128 102 -6 c56 -3 135 -9 175
-12z m672 -74 c0 -24 -6 -33 -26 -40 -32 -13 -37 -12 -29 0 3 6 1 10 -4 10
-15 0 -14 33 1 48 7 7 22 12 35 12 19 0 23 -5 23 -30z m-247 -97 c-7 -2 -19
-2 -25 0 -7 3 -2 5 12 5 14 0 19 -2 13 -5z m10 -98 c4 -57 3 -69 -3 -40 -9 40
-13 132 -6 124 2 -2 6 -40 9 -84z"/>
<path d="M1198 1143 c68 -2 176 -2 240 0 64 1 9 3 -123 3 -132 0 -185 -2 -117
-3z"/>
<path d="M1693 1143 c59 -2 155 -2 215 0 59 1 10 3 -108 3 -118 0 -167 -2
-107 -3z"/>
<path d="M1031 1094 c0 -11 3 -14 6 -6 3 7 2 16 -1 19 -3 4 -6 -2 -5 -13z"/>
<path d="M1398 1053 c23 -2 61 -2 85 0 23 2 4 4 -43 4 -47 0 -66 -2 -42 -4z"/>
<path d="M1027 1015 c-4 -8 -2 -17 3 -20 6 -4 10 3 10 14 0 25 -6 27 -13 6z"/>
<path d="M1905 929 c-4 -6 -4 -13 -1 -16 3 -4 6 -1 6 6 0 7 5 9 12 5 7 -4 8
-3 4 4 -9 15 -13 15 -21 1z"/>
<path d="M1338 483 c7 -3 16 -2 19 1 4 3 -2 6 -13 5 -11 0 -14 -3 -6 -6z"/>
<path d="M1423 473 c15 -2 37 -2 50 0 12 2 0 4 -28 4 -27 0 -38 -2 -22 -4z"/>
<path d="M1340 409 c24 -7 196 -11 175 -4 -5 2 -53 5 -105 8 -52 2 -84 1 -70
-4z"/>
<path d="M1393 333 c26 -2 68 -2 95 0 26 2 4 3 -48 3 -52 0 -74 -1 -47 -3z"/>
<path d="M1333 193 c9 -2 25 -2 35 0 9 3 1 5 -18 5 -19 0 -27 -2 -17 -5z"/>
<path d="M1428 183 c6 -2 18 -2 25 0 6 3 1 5 -13 5 -14 0 -19 -2 -12 -5z"/>
</g>
</svg>
